<?xml version="1.0" encoding="UTF-8" standalone="no"?>
<svg
   xmlns:i="http://ns.adobe.com/AdobeIllustrator/10.0/"
   xmlns:dc="http://purl.org/dc/elements/1.1/"
   xmlns:cc="http://creativecommons.org/ns#"
   xmlns:rdf="http://www.w3.org/1999/02/22-rdf-syntax-ns#"
   xmlns:svg="http://www.w3.org/2000/svg"
   xmlns="http://www.w3.org/2000/svg"
   xmlns:sodipodi="http://sodipodi.sourceforge.net/DTD/sodipodi-0.dtd"
   xmlns:inkscape="http://www.inkscape.org/namespaces/inkscape"
   sodipodi:docname="openfusion.svg"
   inkscape:version="1.0beta1 (32d4812, 2019-09-19)"
   id="svg8"
   version="1.1"
   viewBox="0 0 228.34319 165.61499"
   height="165.61499mm"
   width="228.34319mm">
  <defs
     id="defs2" />
  <sodipodi:namedview
     fit-margin-bottom="0"
     fit-margin-right="0"
     fit-margin-left="0"
     fit-margin-top="0"
     inkscape:window-maximized="0"
     inkscape:window-y="23"
     inkscape:window-x="0"
     inkscape:window-height="1209"
     inkscape:window-width="1600"
     showgrid="false"
     inkscape:document-rotation="0"
     inkscape:current-layer="svg8"
     inkscape:document-units="mm"
     inkscape:cy="445.01397"
     inkscape:cx="387.81818"
     inkscape:zoom="0.7"
     inkscape:pageshadow="2"
     inkscape:pageopacity="0.0"
     borderopacity="1.0"
     bordercolor="#666666"
     pagecolor="#ffffff"
     id="base" />
  <metadata
     id="metadata5">
    <rdf:RDF>
      <cc:Work
         rdf:about="">
        <dc:format>image/svg+xml</dc:format>
        <dc:type
           rdf:resource="http://purl.org/dc/dcmitype/StillImage" />
        <dc:title></dc:title>
      </cc:Work>
    </rdf:RDF>
  </metadata>
  <g
     transform="translate(21.747485,-16.004939)"
     id="layer1"
     inkscape:groupmode="layer"
     inkscape:label="Layer 1" />
  <rect
     style="opacity:1;fill:#8ee6ed;fill-opacity:1;stroke:#000000;stroke-width:1.05833;stroke-linecap:round;stroke-miterlimit:4;stroke-dasharray:none;stroke-opacity:1;stop-opacity:1"
     id="rect838"
     width="90.527565"
     height="52.916668"
     x="68.754227"
     y="57.322437"
     ry="11.717262" />
  <text
     xml:space="preserve"
     style="font-size:10.5833px;line-height:5.29166px;font-family:sans-serif;text-align:center;text-anchor:middle;opacity:1;stroke-width:0.264583;stop-opacity:1"
     x="113.87848"
     y="86.643631"
     id="text842"><tspan
       sodipodi:role="line"
       id="tspan840"
       x="113.87848"
       y="86.643631"
       style="stroke-width:0.264583">OpenFusion.py</tspan></text>
  <g
     style="opacity:1;stop-opacity:1"
     id="_x31_9-Web_Page"
     transform="matrix(0.12775294,0,0,0.12775294,85.062594,-67.187849)" />
  <g
     style="opacity:1;stop-opacity:1"
     id="_x31_8-Wifi"
     transform="matrix(0.12775294,0,0,0.12775294,85.062594,-67.187849)" />
  <g
     style="opacity:1;stop-opacity:1"
     id="_x31_7-Hotspot"
     transform="matrix(0.12775294,0,0,0.12775294,85.062594,-67.187849)" />
  <g
     style="opacity:1;stop-opacity:1"
     id="_x31_6-Satelite"
     transform="matrix(0.12775294,0,0,0.12775294,85.062594,-67.187849)" />
  <g
     style="opacity:1;stop-opacity:1"
     id="_x31_5-Receiver"
     transform="matrix(0.12775294,0,0,0.12775294,85.062594,-67.187849)" />
  <g
     style="opacity:1;stop-opacity:1"
     id="_x31_4-Receiver"
     transform="matrix(0.12775294,0,0,0.12775294,85.062594,-67.187849)" />
  <g
     style="opacity:1;stop-opacity:1"
     id="_x31_3-Receiver"
     transform="matrix(0.12775294,0,0,0.12775294,85.062594,-67.187849)" />
  <g
     style="opacity:1;stop-opacity:1"
     id="_x31_2-Ethernet"
     transform="matrix(0.12775294,0,0,0.12775294,85.062594,-67.187849)" />
  <g
     style="opacity:1;stop-opacity:1"
     id="_x31_1-Code"
     transform="matrix(0.12775294,0,0,0.12775294,85.062594,-67.187849)" />
  <g
     style="opacity:1;stop-opacity:1"
     id="_x31_0-Homegroup"
     transform="matrix(0.12775294,0,0,0.12775294,85.062594,-67.187849)" />
  <g
     style="opacity:1;stop-opacity:1"
     id="_x30_9-Sharing_Option"
     transform="matrix(0.12775294,0,0,0.12775294,85.062594,-67.187849)" />
  <g
     style="opacity:1;stop-opacity:1"
     id="_x30_8-Data"
     transform="matrix(0.12775294,0,0,0.12775294,85.062594,-67.187849)" />
  <g
     style="opacity:1;stop-opacity:1"
     id="_x30_7-Connectivity"
     transform="matrix(0.12775294,0,0,0.12775294,85.062594,-67.187849)" />
  <g
     style="opacity:1;stop-opacity:1"
     id="_x30_6-Computer"
     transform="matrix(0.12775294,0,0,0.12775294,85.062594,-67.187849)" />
  <g
     style="opacity:1;stop-opacity:1"
     id="_x30_5-Laptop"
     transform="matrix(0.12775294,0,0,0.12775294,85.062594,-67.187849)" />
  <g
     style="opacity:1;stop-opacity:1"
     id="_x30_4-Mobile"
     transform="matrix(0.12775294,0,0,0.12775294,85.062594,-67.187849)" />
  <g
     style="opacity:1;stop-opacity:1"
     id="_x30_3-Network"
     transform="matrix(0.12775294,0,0,0.12775294,85.062594,-67.187849)" />
  <g
     style="opacity:1;stop-opacity:1"
     id="_x30_2-Click"
     transform="matrix(0.12775294,0,0,0.12775294,85.062594,-67.187849)" />
  <g
     style="opacity:1;stop-opacity:1"
     id="_x30_1-Website"
     transform="matrix(0.12775294,0,0,0.12775294,85.062594,-67.187849)" />
  <g
     style="opacity:1;stop-opacity:1"
     id="g1795"
     transform="matrix(0.26458333,0,0,0.26458333,150.01315,-24.715036)" />
  <g
     style="opacity:1;stop-opacity:1"
     id="g1797"
     transform="matrix(0.26458333,0,0,0.26458333,150.01315,-24.715036)" />
  <g
     style="opacity:1;stop-opacity:1"
     id="g1799"
     transform="matrix(0.26458333,0,0,0.26458333,150.01315,-24.715036)" />
  <g
     style="opacity:1;stop-opacity:1"
     id="g1801"
     transform="matrix(0.26458333,0,0,0.26458333,150.01315,-24.715036)" />
  <g
     style="opacity:1;stop-opacity:1"
     id="g1803"
     transform="matrix(0.26458333,0,0,0.26458333,150.01315,-24.715036)" />
  <g
     style="opacity:1;stop-opacity:1"
     id="g1805"
     transform="matrix(0.26458333,0,0,0.26458333,150.01315,-24.715036)" />
  <g
     style="opacity:1;stop-opacity:1"
     id="g1807"
     transform="matrix(0.26458333,0,0,0.26458333,150.01315,-24.715036)" />
  <g
     style="opacity:1;stop-opacity:1"
     id="g1809"
     transform="matrix(0.26458333,0,0,0.26458333,150.01315,-24.715036)" />
  <g
     style="opacity:1;stop-opacity:1"
     id="g1811"
     transform="matrix(0.26458333,0,0,0.26458333,150.01315,-24.715036)" />
  <g
     style="opacity:1;stop-opacity:1"
     id="g1813"
     transform="matrix(0.26458333,0,0,0.26458333,150.01315,-24.715036)" />
  <g
     style="opacity:1;stop-opacity:1"
     id="g1815"
     transform="matrix(0.26458333,0,0,0.26458333,150.01315,-24.715036)" />
  <g
     style="opacity:1;stop-opacity:1"
     id="g1817"
     transform="matrix(0.26458333,0,0,0.26458333,150.01315,-24.715036)" />
  <g
     style="opacity:1;stop-opacity:1"
     id="g1819"
     transform="matrix(0.26458333,0,0,0.26458333,150.01315,-24.715036)" />
  <g
     style="opacity:1;stop-opacity:1"
     id="g1821"
     transform="matrix(0.26458333,0,0,0.26458333,150.01315,-24.715036)" />
  <g
     style="opacity:1;stop-opacity:1"
     id="g1823"
     transform="matrix(0.26458333,0,0,0.26458333,150.01315,-24.715036)" />
  <g
     transform="translate(21.784285,-3.9097007)"
     id="g2688">
    <g
       transform="matrix(0.4801055,0,0,0.4801055,62.68323,15.102752)"
       id="g1434"
       style="opacity:1;stop-opacity:1">
      <g
         id="g1418">
        <path
           inkscape:connector-curvature="0"
           fill="#231F1F"
           d="m 50.487,2.04 v 29.034 c 0,0 11.162,-1.299 11.162,9.604 V 13.201 C 61.649,2.818 50.487,2.04 50.487,2.04"
           id="path1414" />
        <path
           inkscape:connector-curvature="0"
           fill="#AAAAAA"
           d="m 55.715,0 v 25.547 c 0,0 6.162,1.189 6.162,12.091 0,10.903 0.031,-20.283 0.031,-26.124 C 61.909,1.132 55.715,0 55.715,0"
           id="path1416" />
      </g>
      <path
         inkscape:connector-curvature="0"
         fill="#3978AD"
         d="m 62.077,12.941 v 26.422 c 0,0 5.359,-15.01 27.887,4.328 0,-7.008 0.043,-24.683 0.043,-30.525 -22.268,-16.223 -27.93,-0.225 -27.93,-0.225"
         id="path1420" />
      <path
         inkscape:connector-curvature="0"
         fill="#3978AD"
         d="m 0,32.718 h 5 v -6.399 h 2.848 c 4.388,0 6.852,-1.996 6.852,-6.55 0,-4.427 -2.869,-6.349 -7.018,-6.349 H 0 Z M 5,17.419 h 0.853 c 1.965,0 3.646,0.027 3.646,2.503 0,2.396 -1.81,2.396 -3.646,2.396 H 5 Z"
         id="path1422" />
      <path
         inkscape:connector-curvature="0"
         fill="#3978AD"
         d="m 16.699,19.619 v 7.871 c 0,4.304 3.073,5.629 7.05,5.629 3.977,0 7.051,-1.324 7.051,-5.629 v -7.871 h -4.7 v 6.974 c 0,1.654 -0.414,2.825 -2.351,2.825 -1.937,0 -2.35,-1.171 -2.35,-2.825 v -6.974 z"
         id="path1424" />
      <path
         inkscape:connector-curvature="0"
         fill="#3978AD"
         d="m 33.6,32.718 h 4.7 v -1.459 h 0.051 c 0.841,1.282 2.42,1.859 3.949,1.859 3.898,0 6.6,-3.225 6.6,-7.013 0,-3.764 -2.677,-6.988 -6.549,-6.988 -1.503,0 -3.057,0.574 -4.05,1.747 v -9.347 h -4.7 z m 7.5,-9.6 c 1.897,0 3,1.378 3,3.014 0,1.688 -1.102,2.986 -3,2.986 -1.897,0 -3,-1.298 -3,-2.986 0,-1.636 1.102,-3.014 3,-3.014 z"
         id="path1426" />
      <polygon
         fill="#FFFFFF"
         points="85.477,13.419 80.485,13.419 76.336,23.733 72.418,13.419 67.477,13.419 64.2,32.718 69.192,32.718 70.805,21.607 70.856,21.607 75.286,32.718 77.284,32.718 81.918,21.607 81.969,21.607 83.377,32.718 88.399,32.718 "
         id="polygon1428" />
      <path
         inkscape:connector-curvature="0"
         fill="#3978AD"
         d="m 96.7,24.218 c 0.281,-1.374 1.408,-2.1 2.764,-2.1 1.254,0 2.406,0.83 2.639,2.1 z m 9.726,2.213 c 0,-4.49 -2.65,-7.313 -7.227,-7.313 -4.293,0 -7.299,2.636 -7.299,7.013 0,4.53 3.264,6.987 7.637,6.987 3.008,0 5.965,-1.406 6.711,-4.5 h -4.492 c -0.512,0.869 -1.23,1.201 -2.23,1.201 -1.924,0 -2.926,-1.019 -2.926,-2.901 h 9.826 z"
         id="path1430" />
      <path
         inkscape:connector-curvature="0"
         fill="#3978AD"
         d="m 118.399,32.718 h 4.701 v -21.2 h -4.701 v 9.347 c -0.969,-1.173 -2.549,-1.747 -4.051,-1.747 -3.873,0 -6.549,3.225 -6.549,6.987 0,3.762 2.727,7.012 6.6,7.012 1.527,0 3.133,-0.578 3.947,-1.859 h 0.053 z m -2.799,-9.6 c 1.896,0 3,1.378 3,3.014 0,1.688 -1.102,2.986 -3,2.986 -1.896,0 -3,-1.298 -3,-2.986 0,-1.636 1.102,-3.014 3,-3.014 z"
         id="path1432" />
    </g>
    <path
       sodipodi:nodetypes="sssssssssas"
       inkscape:connector-curvature="0"
       id="path1869"
       d="m 62.873423,37.609649 c 8.833565,0.184567 17.59756,5.387829 26.676146,5.464889 9.394359,0.07974 19.125581,-4.973381 29.619321,-5.184626 8.06463,-0.162344 15.94618,-5.006675 15.89714,-10.360482 -0.0517,-5.64536 -14.12805,-7.913286 -17.10612,-11.474915 -1.5317,-1.831817 -1.93918,-3.123664 -3.16317,-4.607377 C 111.69077,7.6820221 108.10144,5.3899766 101.56849,4.3596263 88.2855,2.2646869 80.349617,7.9089499 75.025942,12.553826 73.127326,14.210368 64.628587,9.245499 51.748004,23.196866 c -2.54769,2.759477 -3.165706,6.393364 -1.135512,9.136061 2.147625,2.901339 7.392053,5.17499 12.260931,5.276722 z"
       style="opacity:1;fill:none;stroke:#cccccc;stroke-width:1.34482;stroke-linecap:butt;stroke-linejoin:miter;stroke-miterlimit:4;stroke-dasharray:none;stroke-opacity:0.8;stop-opacity:1" />
  </g>
  <path
     style="fill:#ffaeab;fill-opacity:1;stroke:#000000;stroke-width:0.134456px;stroke-linecap:butt;stroke-linejoin:miter;stroke-opacity:1"
     d="m 108.32531,49.687986 13.99607,-18.401299 -6.90715,16.044715 3.54875,3.953302 c 0,0 -13.77342,17.584979 -13.69391,17.293438 0.0795,-0.291544 6.74308,-15.588116 6.74308,-15.588116 z"
     id="path1937"
     inkscape:connector-curvature="0" />
  <path
     d="m 69.952006,149.82996 17.012227,-0.0592 v -15.67948 h -7.106745 c -0.402291,0 -1.069738,0.0528 -1.221371,-0.39292 -0.422406,-1.24162 -0.22688,-0.87303 -0.22688,-1.35995 l -0.04888,-7.77324 -8.310587,0.11833 z m 9.60613,-17.07003 6.612608,-0.11832 -6.710371,-7.82597 z m 8.506114,2.04134 v 14.60721 c 0,0.48691 -0.140801,0.90078 -0.422407,1.24161 -0.281604,0.34084 -0.623552,0.51125 -1.025845,0.51125 H 70.202477 c -0.402292,0 -0.744241,-0.17041 -1.025845,-0.51125 -0.281605,-0.34083 -0.422406,-0.7547 -0.422406,-1.24161 v -24.54011 c 0,-0.48691 0.140801,-0.90078 0.422406,-1.24161 0.281604,-0.34084 0.623553,-0.51126 1.025845,-0.51126 h 8.20676 c 0.402292,0 0.844813,0.12173 1.327565,0.36518 0.48275,0.24346 0.864927,0.5356 1.146532,0.87643 l 6.155071,7.44968 c 0.281605,0.34084 0.522979,0.8034 0.724126,1.38768 0.201146,0.58429 0.301719,1.11989 0.301719,1.6068 z"
     id="path6"
     inkscape:connector-curvature="0"
     style="opacity:1;fill:#8da0c4;fill-opacity:1;stroke:none;stroke-width:0.015971;stroke-miterlimit:4;stroke-dasharray:none;stop-opacity:1"
     sodipodi:nodetypes="cccssscccccccsscsscssssssssss" />
  <path
     sodipodi:nodetypes="cccssscccccccsscsscssssssssss"
     style="opacity:1;fill:#8da0c4;fill-opacity:1;stroke:none;stroke-width:0.015971;stroke-miterlimit:4;stroke-dasharray:none;stop-opacity:1"
     inkscape:connector-curvature="0"
     id="path2077"
     d="m 91.158979,149.82996 17.012231,-0.0592 v -15.67948 h -7.10675 c -0.40229,0 -1.069738,0.0528 -1.22137,-0.39292 -0.422407,-1.24162 -0.22688,-0.87303 -0.22688,-1.35995 l -0.04888,-7.77324 -8.310587,0.11833 z m 9.606131,-17.07003 6.61261,-0.11832 -6.71038,-7.82597 z m 8.50612,2.04134 v 14.60721 c 0,0.48691 -0.14081,0.90078 -0.42241,1.24161 -0.2816,0.34084 -0.62355,0.51125 -1.02585,0.51125 H 91.409449 c -0.402291,0 -0.744239,-0.17041 -1.025845,-0.51125 -0.281604,-0.34083 -0.422405,-0.7547 -0.422405,-1.24161 v -24.54011 c 0,-0.48691 0.140801,-0.90078 0.422405,-1.24161 0.281606,-0.34084 0.623554,-0.51126 1.025845,-0.51126 h 8.206761 c 0.40229,0 0.84481,0.12173 1.32756,0.36518 0.48275,0.24346 0.86493,0.5356 1.14654,0.87643 l 6.15506,7.44968 c 0.28161,0.34084 0.52298,0.8034 0.72414,1.38768 0.20114,0.58429 0.30172,1.11989 0.30172,1.6068 z" />
  <path
     d="m 137.31237,149.82996 17.01222,-0.0592 v -15.67948 h -7.10674 c -0.40229,0 -1.06974,0.0528 -1.22137,-0.39292 -0.42241,-1.24162 -0.22688,-0.87303 -0.22688,-1.35995 l -0.0489,-7.77324 -8.31059,0.11833 z m 9.60613,-17.07003 6.6126,-0.11832 -6.71036,-7.82597 z m 8.50612,2.04134 v 14.60721 c 0,0.48691 -0.14081,0.90078 -0.42241,1.24161 -0.28161,0.34084 -0.62355,0.51125 -1.02584,0.51125 h -16.41353 c -0.40229,0 -0.74424,-0.17041 -1.02584,-0.51125 -0.28161,-0.34083 -0.42241,-0.7547 -0.42241,-1.24161 v -24.54011 c 0,-0.48691 0.1408,-0.90078 0.42241,-1.24161 0.2816,-0.34084 0.62355,-0.51126 1.02584,-0.51126 h 8.20676 c 0.40229,0 0.84481,0.12173 1.32757,0.36518 0.48275,0.24346 0.86493,0.5356 1.14653,0.87643 l 6.15507,7.44968 c 0.28161,0.34084 0.52297,0.8034 0.72412,1.38768 0.20114,0.58429 0.30173,1.11989 0.30173,1.6068 z"
     id="path2083"
     inkscape:connector-curvature="0"
     style="opacity:1;fill:#8da0c4;fill-opacity:1;stroke:none;stroke-width:0.015971;stroke-miterlimit:4;stroke-dasharray:none;stop-opacity:1"
     sodipodi:nodetypes="cccssscccccccsscsscssssssssss" />
  <path
     style="stroke-width:1.62646"
     inkscape:connector-curvature="0"
     fill="#000000"
     d="m 219.03822,69.642313 c -0.68731,-0.62395 -1.64981,-1.17646 -2.8612,-1.64135 -2.40898,-0.92579 -5.60071,-1.43464 -8.98604,-1.43464 -3.38533,0 -6.57707,0.51044 -8.9861,1.43464 -1.2128,0.46489 -2.1753,1.01769 -2.8612,1.64135 -0.85603,0.77852 -1.29021,1.67186 -1.29021,2.66084 v 22.955158 c 0,0.98899 0.43434,1.88427 1.29021,2.66092 0.68731,0.62394 1.64981,1.17646 2.8612,1.64127 2.40903,0.925869 5.60077,1.434719 8.9861,1.434719 3.38533,0 6.57706,-0.51116 8.98604,-1.436599 1.2128,-0.46488 2.1753,-1.01769 2.8612,-1.64134 0.85603,-0.77665 1.29026,-1.67186 1.29026,-2.66085 V 72.301273 c 0,-0.98898 -0.43434,-1.88427 -1.29026,-2.66091 z m -20.46272,0.20099 c 2.29285,-0.87996 5.35182,-1.36581 8.61548,-1.36581 3.2636,0 6.32398,0.48585 8.61542,1.36581 2.48231,0.95458 3.1392,2.02577 3.1392,2.46 0,0.43452 -0.65553,1.5055 -3.1392,2.46007 -2.29285,0.87988 -5.35182,1.36581 -8.61542,1.36581 -3.26366,0 -6.32399,-0.48585 -8.61548,-1.36581 -2.48226,-0.95457 -3.13915,-2.02584 -3.13915,-2.46007 0,-0.43452 0.65548,-1.50542 3.13915,-2.46 z m 17.2309,27.875218 c -2.29285,0.87989 -5.35182,1.36582 -8.61542,1.36582 -3.26366,0 -6.32399,-0.48586 -8.61548,-1.36582 -2.48226,-0.95457 -3.13915,-2.02583 -3.13915,-2.46006 v -4.90857 c 0.68036,0.59141 1.60967,1.11522 2.76853,1.56095 2.40903,0.92587 5.60077,1.43471 8.9861,1.43471 3.38533,0 6.57706,-0.51044 8.98604,-1.43659 1.15886,-0.44537 2.08953,-0.9699 2.76858,-1.56095 v 4.90857 c 0,0.43452 -0.65553,1.50542 -3.1392,2.45999 z m 0,-7.65176 c -2.29285,0.87996 -5.35182,1.36589 -8.61542,1.36589 -3.26366,0 -6.32399,-0.48586 -8.61548,-1.36589 -2.48226,-0.9545 -3.13915,-2.02576 -3.13915,-2.46 v -4.908578 c 0.68036,0.59069 1.60967,1.11523 2.76853,1.560958 2.40903,0.92587 5.60077,1.43472 8.9861,1.43472 3.38533,0 6.57706,-0.51116 8.98604,-1.43472 1.15886,-0.446088 2.08953,-0.969908 2.76858,-1.560958 v 4.908578 c 0,0.43453 -0.65553,1.5055 -3.1392,2.46 z m 0,-7.651698 c -2.29285,0.87996 -5.35182,1.36581 -8.61542,1.36581 -3.26366,0 -6.32399,-0.48585 -8.61548,-1.36581 -2.48226,-0.95457 -3.13915,-2.02577 -3.13915,-2.46 v -4.90864 c 0.68036,0.59141 1.60967,1.1153 2.76853,1.56095 2.40903,0.92587 5.60077,1.43472 8.9861,1.43472 3.38533,0 6.57706,-0.51044 8.98604,-1.43472 1.15886,-0.44537 2.08953,-0.96983 2.76858,-1.56095 v 4.90864 c 0,0.43452 -0.65553,1.50543 -3.1392,2.46 z"
     id="path1972" />
  <text
     id="text1985"
     y="115.15281"
     x="207.08142"
     style="font-size:8.46667px;line-height:4.23333px;font-family:sans-serif;text-align:center;text-anchor:middle;stroke-width:0.264583"
     xml:space="preserve"><tspan
       style="stroke-width:0.264583"
       y="115.15281"
       x="207.08142"
       id="tspan1983"
       sodipodi:role="line">SQLite DB</tspan></text>
  <path
     sodipodi:nodetypes="cccssscccccccsscsscssssssssss"
     style="opacity:1;fill:#8da0c4;fill-opacity:1;stroke:none;stroke-width:0.0196301;stroke-miterlimit:4;stroke-dasharray:none;stop-opacity:1"
     inkscape:connector-curvature="0"
     id="path1996"
     d="m 11.720583,99.380071 20.909905,-0.0727 V 80.03556 h -8.734975 c -0.494461,0 -1.314827,0.0649 -1.5012,-0.48295 -0.519184,-1.52608 -0.278861,-1.07305 -0.278861,-1.67152 l -0.06008,-9.55417 -10.214628,0.14544 z M 23.527576,78.39912 31.655201,78.25369 23.407414,68.63471 Z m 10.454954,2.50903 v 17.953871 c 0,0.59847 -0.17306,1.10716 -0.519184,1.526079 -0.346123,0.41893 -0.766415,0.62839 -1.260877,0.62839 h -20.17403 c -0.494461,0 -0.914754,-0.20946 -1.260877,-0.62839 -0.346124,-0.418919 -0.519184,-0.927609 -0.519184,-1.526079 V 68.69952 c 0,-0.59847 0.17306,-1.10716 0.519184,-1.52608 0.346123,-0.41893 0.766416,-0.62839 1.260877,-0.62839 h 10.087013 c 0.494462,0 1.038369,0.14962 1.631724,0.44885 0.593353,0.29923 1.063091,0.65831 1.409214,1.07723 l 7.565263,9.15648 c 0.346124,0.41892 0.642799,0.98746 0.890031,1.70561 0.247231,0.71815 0.370846,1.37647 0.370846,1.97493 z" />
  <text
     xml:space="preserve"
     style="font-size:8.46667px;line-height:4.23333px;font-family:sans-serif;text-align:center;text-anchor:middle;stroke-width:0.264583"
     x="21.983162"
     y="94.082985"
     id="text2000"><tspan
       sodipodi:role="line"
       id="tspan1998"
       x="21.983162"
       y="94.082985"
       style="stroke-width:0.264583">.yml</tspan></text>
  <text
     xml:space="preserve"
     style="font-size:8.46667px;line-height:4.23333px;font-family:sans-serif;text-align:center;text-anchor:middle;stroke-width:0.264583"
     x="113.69019"
     y="163.91173"
     id="text2004"><tspan
       sodipodi:role="line"
       id="tspan2002"
       x="113.69019"
       y="163.91173"
       style="stroke-width:0.264583">dictionary text files</tspan></text>
  <text
     id="text2008"
     y="115.18587"
     x="21.939754"
     style="font-size:8.46667px;line-height:4.23333px;font-family:sans-serif;text-align:center;text-anchor:middle;stroke-width:0.264583"
     xml:space="preserve"><tspan
       style="stroke-width:0.264583"
       y="115.18587"
       x="21.939756"
       id="tspan2006"
       sodipodi:role="line">project file</tspan></text>
  <g
     transform="matrix(0,-0.12946972,0.09142423,0,44.155977,96.804701)"
     id="g2048">
    <g
       id="g2016">
      <g
         id="g2014">
        <g
           id="g2012">
          <path
             inkscape:connector-curvature="0"
             style="fill:#010002"
             d="m 102.246,201.189 c -4.373,0 -7.38,-3.393 -7.709,-3.786 l -60.3,-72.869 c -1.596,-1.482 -5.712,-5.948 -4.155,-9.853 0.92,-2.319 3.332,-3.5 7.158,-3.5 H 68.326 V 8.296 C 68.172,7.326 68.05,5.107 69.593,3.11 71.182,1.049 73.901,0 77.67,0 h 47.781 c 3.382,0 5.336,1.281 6.378,2.355 1.958,2.015 1.99,4.456 1.976,4.921 v 101.743 h 28.491 c 1.757,0 7.115,0 8.75,3.962 1.707,4.137 -2.434,8.704 -3.74,10.003 -1.829,2.473 -51.221,67.995 -58.407,75.192 -2.487,2.487 -4.989,3.013 -6.653,3.013 z M 35.683,117.064 c 0.437,0.927 1.589,2.434 2.759,3.55 l 60.515,73.087 c 0.39,0.451 1.832,1.721 3.289,1.721 0.848,0 1.686,-0.433 2.577,-1.317 6.907,-6.918 57.634,-74.211 58.153,-74.898 1.478,-1.525 2.656,-3.35 2.706,-4.069 -0.147,0.018 -0.981,-0.365 -3.386,-0.365 h -34.25 V 7.19 C 128.003,6.242 127.13,5.766 125.451,5.766 H 77.67 c -2.065,0 -3.16,0.433 -3.5,0.845 -0.243,0.297 -0.161,0.766 -0.161,0.766 l 0.075,0.655 V 116.94 H 37.24 c -0.727,-0.001 -1.224,0.063 -1.557,0.124 z"
             id="path2010" />
        </g>
      </g>
    </g>
    <g
       id="g2018" />
    <g
       id="g2020" />
    <g
       id="g2022" />
    <g
       id="g2024" />
    <g
       id="g2026" />
    <g
       id="g2028" />
    <g
       id="g2030" />
    <g
       id="g2032" />
    <g
       id="g2034" />
    <g
       id="g2036" />
    <g
       id="g2038" />
    <g
       id="g2040" />
    <g
       id="g2042" />
    <g
       id="g2044" />
    <g
       id="g2046" />
  </g>
  <path
     inkscape:connector-curvature="0"
     id="path986"
     d="m 69.409517,119.84312 c 0.21378,-2.65851 3.845307,-3.38784 15.488119,-3.38784 h 16.129124 c 7.15654,0 10.57469,-0.1647 12.49727,-1.88212 h 0.21378 c 1.92273,1.69391 5.34077,1.88212 12.39055,1.88212 h 17.19715 c 11.21555,0 14.41999,0.91754 14.74044,3.38784 l -0.21267,0.0471"
     i:knockout="Off"
     style="opacity:1;fill:none;stroke:#000000;stroke-width:0.276389;stroke-miterlimit:4;stroke-dasharray:none;stroke-opacity:1;stop-opacity:1"
     sodipodi:nodetypes="cssccsscc" />
  <g
     id="g2674"
     transform="matrix(0,-0.12946972,0.09142423,0,167.18722,96.804697)">
    <g
       id="g2642">
      <g
         id="g2640">
        <g
           id="g2638">
          <path
             id="path2636"
             d="m 102.246,201.189 c -4.373,0 -7.38,-3.393 -7.709,-3.786 l -60.3,-72.869 c -1.596,-1.482 -5.712,-5.948 -4.155,-9.853 0.92,-2.319 3.332,-3.5 7.158,-3.5 H 68.326 V 8.296 C 68.172,7.326 68.05,5.107 69.593,3.11 71.182,1.049 73.901,0 77.67,0 h 47.781 c 3.382,0 5.336,1.281 6.378,2.355 1.958,2.015 1.99,4.456 1.976,4.921 v 101.743 h 28.491 c 1.757,0 7.115,0 8.75,3.962 1.707,4.137 -2.434,8.704 -3.74,10.003 -1.829,2.473 -51.221,67.995 -58.407,75.192 -2.487,2.487 -4.989,3.013 -6.653,3.013 z M 35.683,117.064 c 0.437,0.927 1.589,2.434 2.759,3.55 l 60.515,73.087 c 0.39,0.451 1.832,1.721 3.289,1.721 0.848,0 1.686,-0.433 2.577,-1.317 6.907,-6.918 57.634,-74.211 58.153,-74.898 1.478,-1.525 2.656,-3.35 2.706,-4.069 -0.147,0.018 -0.981,-0.365 -3.386,-0.365 h -34.25 V 7.19 C 128.003,6.242 127.13,5.766 125.451,5.766 H 77.67 c -2.065,0 -3.16,0.433 -3.5,0.845 -0.243,0.297 -0.161,0.766 -0.161,0.766 l 0.075,0.655 V 116.94 H 37.24 c -0.727,-0.001 -1.224,0.063 -1.557,0.124 z"
             style="fill:#010002"
             inkscape:connector-curvature="0" />
        </g>
      </g>
    </g>
    <g
       id="g2644" />
    <g
       id="g2646" />
    <g
       id="g2648" />
    <g
       id="g2650" />
    <g
       id="g2652" />
    <g
       id="g2654" />
    <g
       id="g2656" />
    <g
       id="g2658" />
    <g
       id="g2660" />
    <g
       id="g2662" />
    <g
       id="g2664" />
    <g
       id="g2666" />
    <g
       id="g2668" />
    <g
       id="g2670" />
    <g
       id="g2672" />
  </g>
  <text
     xml:space="preserve"
     style="font-style:normal;font-variant:normal;font-weight:normal;font-stretch:normal;font-size:19.05px;line-height:9.525px;font-family:'Times New Roman';-inkscape-font-specification:'Times New Roman, ';text-align:center;text-anchor:middle;stroke-width:0.264583"
     x="122.69291"
     y="143.879"
     id="text2703"><tspan
       sodipodi:role="line"
       id="tspan2701"
       x="122.69291"
       y="143.879"
       style="font-style:normal;font-variant:normal;font-weight:normal;font-stretch:normal;font-family:'Times New Roman';-inkscape-font-specification:'Times New Roman, ';stroke-width:0.264583">. . .</tspan></text>
</svg>
